<svg version="1" xmlns="http://www.w3.org/2000/svg" width="426.667" height="426.667" viewBox="0 0 320.000000 320.000000"><path d="M0 160v160h320V0H0v160zm160-90.9c9.2 2.1 16.4 9.3 19.7 19.5.9 3 1.9 5.4 2.3 5.4.3 0 2.3-2.2 4.4-5 8.1-10.6 20.3-16.9 32.6-17 10.1 0 14.4 1.4 19.7 6.3 4.9 4.6 8.2 10.2 11 19.2 1.7 5.6 1.8 10.3 1.7 64.2l-.2 58.3H265l-.5 5.2c-.2 2.9-.7 9.2-1.1 13.9l-.6 8.6-12.1.6c-6.7.4-19.1 1-27.5 1.3l-15.3.7.3-14.9.3-14.9 5.9-.7c3.2-.4 6.1-1 6.5-1.3.3-.3.7-22 .9-48.2.5-54 .3-56-5.7-62.3-3.4-3.6-4.3-4-8.5-4-8.7 0-15.5 5.2-20.2 15.4l-2.7 5.9-.8 36.6c-.4 20.1-.8 41.9-.8 48.3l-.1 11.6 6.5.7c3.6.4 6.7 1 6.9 1.4.2.3-.4 6.4-1.3 13.6l-1.6 13-9-.1c-5-.1-16.8-.5-26.2-.9l-17.3-.7v-13.3c0-9.4.4-13.5 1.3-14.2.6-.6 3.1-1.3 5.5-1.6 2.4-.3 4.5-.7 4.7-.9 1.7-1.9 2.3-100.1.6-105.6-1.5-5-4.7-9.7-7.7-11.3-3.5-1.8-11.2-1.6-15.3.5-6.5 3.4-12 14.1-14 27.6-.9 6-3 63.5-3.1 84.2v4.8h14.2l-.4 13.4c-.2 7.4-.6 13.7-.8 13.9-.3.2-13 .7-28.2 1l-27.8.5v-31.5l4.6-.7c2.6-.3 6.5-.6 8.6-.6h4l-.7-55.8c-.4-30.6-.8-55.8-.9-55.9-.1-.1-4.6-.4-10.1-.8-16.1-1-14.5.8-14.5-16V72.1l3.3-.5c1.7-.3 13.2-.8 25.5-1.1l22.2-.7v11.9l.1 11.8 2.2-3c12.6-17.2 29.4-25.1 45.7-21.4z"/></svg>